# xmcd
#
# Track frame offsets:
#	150
#	16972
#	30676
#	42460
#	52411
#	63256
#	77965
#	87418
#	101026
#	114028
#	123291
#	144944
#	156469
#	162260
#	169216
#	177979
#	188476
#	201291
#	214257
#	224397
#	237215
#
# Disc length: 3227 seconds
#
# Revision: 2
# Processed by: cddbd v1.5.2PL0 Copyright (c) Steve Scherf et al.
# Submitted via: EasyCDDAExtractor 2010.6.0.0
#
DISCID=2d0c9915
DTITLE=Nikitini Tatyana i Sergey - Cherno-Beloe Kino
DYEAR=2002
DGENRE=Unknown
TTITLE0=Bivayut kriliya u hudojnikov
TTITLE1=Proshai, Sadovoe Kol'tso
TTITLE2=Lyudei teryayut tol'ko raz
TTITLE3=Rio-Rita
TTITLE4=Po neschast'yu ili k schast'yu
TTITLE5=Paluba
TTITLE6=V golodnom gorodke
TTITLE7=A legko l' perenosit'...
TTITLE8=Ya idu po gorodu
TTITLE9=Na pristani nachertano...
TTITLE10=Tam, za rekoyu...
TTITLE11=Vletel na svet osennii juk
TTITLE12=Prostite, prostite, prostite menya
TTITLE13=Vhodite, milie, ne boites'
TTITLE14=Ya shagayu po Moskve
TTITLE15=Ponedel'nik, ponedel'nik...
TTITLE16=Ostaetsya vo flyage
TTITLE17=Vo Francii nevajnie dela
TTITLE18=Menyayut lyudi adresa
TTITLE19=Ya kvam travoyu prorastu
TTITLE20=Final
EXTD=YEAR: 2002
EXTT0=
EXTT1=
EXTT2=
EXTT3=
EXTT4=
EXTT5=
EXTT6=
EXTT7=
EXTT8=
EXTT9=
EXTT10=
EXTT11=
EXTT12=
EXTT13=
EXTT14=
EXTT15=
EXTT16=
EXTT17=
EXTT18=
EXTT19=
EXTT20=
PLAYORDER=
